<?xml version="1.0" encoding="UTF-8" standalone="no"?>
<svg viewBox="0 0 287.54529 284.26868" xmlns="http://www.w3.org/2000/svg">
<g transform="matrix(9.99552,0,0,9.99552,-1317.58023,100.90044)">
<g fill="#666" stroke="#686565" stroke-linecap="round" stroke-linejoin="round" stroke-width=".125">
<path d="m136.23802,9.42859 .6912-1.42395 .22641,1.98714-.6912,1.42395-.22641-1.98714z" fill="#666" stroke="#686565" stroke-linecap="round" stroke-linejoin="round" stroke-width=".125"/>
<path d="m136.92922,8.00464-.93546-.24887 .22641,1.98714 .93546.24887-.22641-1.98714z" fill="#666" stroke="#686565" stroke-linecap="round" stroke-linejoin="round" stroke-width=".125"/>
<path d="m135.99376,7.75577-.93545-.24886 .22641,1.98714 .93545.24886-.22641-1.98714z" fill="#666" stroke="#686565" stroke-linecap="round" stroke-linejoin="round" stroke-width=".125"/>
<path d="m135.05831,7.50691 .49158-.93468 .22641,1.98714-.49158.93468-.22641-1.98714z" fill="#666" stroke="#686565" stroke-linecap="round" stroke-linejoin="round" stroke-width=".125"/>
<path d="m135.54989,6.57222 .49157-.93468 .22641,1.98714-.49157.93468-.22641-1.98714z" fill="#666" stroke="#686565" stroke-linecap="round" stroke-linejoin="round" stroke-width=".125"/>
<path d="m136.04146,5.63754-.90468-.23425 .22641,1.98714 .90468.23425-.22641-1.98714z" fill="#666" stroke="#686565" stroke-linecap="round" stroke-linejoin="round" stroke-width=".125"/>
<path d="m135.13678,5.40329-.90468-.23425 .22641,1.98714 .90468.23425-.22641-1.98714z" fill="#666" stroke="#686565" stroke-linecap="round" stroke-linejoin="round" stroke-width=".125"/>
<path d="m134.2321,5.16904 .52234-.92007 .22641,1.98714-.52234.92007-.22641-1.98714z" fill="#666" stroke="#686565" stroke-linecap="round" stroke-linejoin="round" stroke-width=".125"/>
<path d="m134.75444,4.24898 .52235-.92007 .22641,1.98714-.52235.92007-.22641-1.98714z" fill="#666" stroke="#686565" stroke-linecap="round" stroke-linejoin="round" stroke-width=".125"/>
<path d="m135.27679,3.32891-.87391-.21963 .22641,1.98714 .87391.21963-.22641-1.98714z" fill="#666" stroke="#686565" stroke-linecap="round" stroke-linejoin="round" stroke-width=".125"/>
<path d="m134.40288,3.10928-.8739-.21963 .22641,1.98714 .8739.21963-.22641-1.98714z" fill="#666" stroke="#686565" stroke-linecap="round" stroke-linejoin="round" stroke-width=".125"/>
<path d="m133.52898,2.88965 .55311-.90545 .22641,1.98714-.55311.90545-.22641-1.98714z" fill="#666" stroke="#686565" stroke-linecap="round" stroke-linejoin="round" stroke-width=".125"/>
<path d="m134.08209,1.9842 .55312-.90545 .22641,1.98714-.55312.90545-.22641-1.98714z" fill="#666" stroke="#686565" stroke-linecap="round" stroke-linejoin="round" stroke-width=".125"/>
<path d="m134.63521,1.07875-.84009-.20427 .22641,1.98714 .84009.20427-.22641-1.98714z" fill="#666" stroke="#686565" stroke-linecap="round" stroke-linejoin="round" stroke-width=".125"/>
<path d="m133.79512.87447-.84008-.20427 .22641,1.98714 .84008.20427-.22641-1.98714z" fill="#666" stroke="#686565" stroke-linecap="round" stroke-linejoin="round" stroke-width=".125"/>
<path d="m132.95504.6702 .26066-.44008 .22641,1.98714-.26066.44007-.22641-1.98714z" fill="#666" stroke="#686565" stroke-linecap="round" stroke-linejoin="round" stroke-width=".125"/>
<path d="m133.2157.23013 .26111-.43987 .22641,1.98714-.26111.43987-.22641-1.98714z" fill="#666" stroke="#686565" stroke-linecap="round" stroke-linejoin="round" stroke-width=".125"/>
<path d="m133.47681-.20974-.79885-.20558 .22641,1.98714 .79885.20558-.22641-1.98714z" fill="#666" stroke="#686565" stroke-linecap="round" stroke-linejoin="round" stroke-width=".125"/>
<path d="m132.67796-.41533-.79842-.20538 .22641,1.98714 .79842.20538-.22641-1.98714z" fill="#666" stroke="#686565" stroke-linecap="round" stroke-linejoin="round" stroke-width=".125"/>
<path d="m131.87954-.6207 .92087-1.31274 .22641,1.98714-.92087,1.31274-.22641-1.98714z" fill="#666" stroke="#686565" stroke-linecap="round" stroke-linejoin="round" stroke-width=".125"/>
<path d="m132.80041-1.93345 .92088-1.31274 .22641,1.98714-.92088,1.31274-.22641-1.98714z" fill="#666" stroke="#686565" stroke-linecap="round" stroke-linejoin="round" stroke-width=".125"/>
<path d="m133.72129-3.24619 2.34479.52735 .22641,1.98714-2.34479-.52735-.22641-1.98714z" fill="#666" stroke="#686565" stroke-linecap="round" stroke-linejoin="round" stroke-width=".125"/>
<path d="m136.06608-2.71884 2.34478.52735 .22641,1.98714-2.34478-.52735-.22641-1.98714z" fill="#666" stroke="#686565" stroke-linecap="round" stroke-linejoin="round" stroke-width=".125"/>
<path d="m138.41086-2.19149-.26117.46003 .22641,1.98714 .26117-.46003-.22641-1.98714z" fill="#666" stroke="#686565" stroke-linecap="round" stroke-linejoin="round" stroke-width=".125"/>
<path d="m138.14969-1.73146-.26118.46003 .22641,1.98714 .26118-.46003-.22641-1.98714z" fill="#666" stroke="#686565" stroke-linecap="round" stroke-linejoin="round" stroke-width=".125"/>
<path d="m137.88851-1.27143 .83684.19225 .22641,1.98714-.83684-.19225-.22641-1.98714z" fill="#666" stroke="#686565" stroke-linecap="round" stroke-linejoin="round" stroke-width=".125"/>
<path d="m138.72535-1.07918 .83683.19224 .22641,1.98714-.83683-.19224-.22641-1.98714z" fill="#666" stroke="#686565" stroke-linecap="round" stroke-linejoin="round" stroke-width=".125"/>
<path d="m139.56218-.88694 2.19291-4.18598 .22641,1.98714-2.19291,4.18598-.22641-1.98714z" fill="#666" stroke="#686565" stroke-linecap="round" stroke-linejoin="round" stroke-width=".125"/>
<path d="m141.75509-5.07292 2.19291-4.18598 .22641,1.98714-2.19291,4.18598-.22641-1.98714z" fill="#666" stroke="#686565" stroke-linecap="round" stroke-linejoin="round" stroke-width=".125"/>
<path d="m143.948-9.25889 .59334.10591 .22641,1.98714-.59334-.10591-.22641-1.98714z" fill="#666" stroke="#686565" stroke-linecap="round" stroke-linejoin="round" stroke-width=".125"/>
<path d="m144.54134-9.15298 .59336.10591 .22641,1.98714-.59336-.10591-.22641-1.98714z" fill="#666" stroke="#686565" stroke-linecap="round" stroke-linejoin="round" stroke-width=".125"/>
<path d="m145.1347-9.04707-2.9821,6.11827 .22641,1.98714 2.9821-6.11827-.22641-1.98714z" fill="#666" stroke="#686565" stroke-linecap="round" stroke-linejoin="round" stroke-width=".125"/>
<path d="m142.1526-2.9288-2.9821,6.11827 .22641,1.98714 2.9821-6.11827-.22641-1.98714z" fill="#666" stroke="#686565" stroke-linecap="round" stroke-linejoin="round" stroke-width=".125"/>
<path d="m139.1705,3.18947-.77199-.19076 .22641,1.98714 .77199.19076-.22641-1.98714z" fill="#666" stroke="#686565" stroke-linecap="round" stroke-linejoin="round" stroke-width=".125"/>
<path d="m138.39851,2.99871-.77197-.19076 .22641,1.98714 .77197.19076-.22641-1.98714z" fill="#666" stroke="#686565" stroke-linecap="round" stroke-linejoin="round" stroke-width=".125"/>
<path d="m137.62654,2.80795 .7228-1.37974 .22641,1.98714-.7228,1.37974-.22641-1.98714z" fill="#666" stroke="#686565" stroke-linecap="round" stroke-linejoin="round" stroke-width=".125"/>
<path d="m138.34934,1.42822 .7228-1.37974 .22641,1.98714-.7228,1.37974-.22641-1.98714z" fill="#666" stroke="#686565" stroke-linecap="round" stroke-linejoin="round" stroke-width=".125"/>
<path d="m139.07214.04848-.85298-.19992 .22641,1.98714 .85298.19992-.22641-1.98714z" fill="#666" stroke="#686565" stroke-linecap="round" stroke-linejoin="round" stroke-width=".125"/>
<path d="m138.21916-.15144-.85299-.19992 .22641,1.98714 .85299.19992-.22641-1.98714z" fill="#666" stroke="#686565" stroke-linecap="round" stroke-linejoin="round" stroke-width=".125"/>
<path d="m137.36617-.35136 .26117-.46003 .22641,1.98714-.26117.46003-.22641-1.98714z" fill="#666" stroke="#686565" stroke-linecap="round" stroke-linejoin="round" stroke-width=".125"/>
<path d="m137.62734-.81139 .26117-.46003 .22641,1.98714-.26117.46003-.22641-1.98714z" fill="#666" stroke="#686565" stroke-linecap="round" stroke-linejoin="round" stroke-width=".125"/>
<path d="m137.88851-1.27143-1.59395-.36618 .22641,1.98714 1.59395.36618-.22641-1.98714z" fill="#666" stroke="#686565" stroke-linecap="round" stroke-linejoin="round" stroke-width=".125"/>
<path d="m136.29456-1.63761-1.59396-.36618 .22641,1.98714 1.59396.36618-.22641-1.98714z" fill="#666" stroke="#686565" stroke-linecap="round" stroke-linejoin="round" stroke-width=".125"/>
<path d="m134.7006-2.00379-.58389.89083 .22641,1.98714 .58389-.89083-.22641-1.98714z" fill="#666" stroke="#686565" stroke-linecap="round" stroke-linejoin="round" stroke-width=".125"/>
<path d="m134.11671-1.11295-.58389.89083 .22641,1.98714 .58389-.89083-.22641-1.98714z" fill="#666" stroke="#686565" stroke-linecap="round" stroke-linejoin="round" stroke-width=".125"/>
<path d="m133.53282-.22212 .82775.19771 .22641,1.98714-.82775-.19771-.22641-1.98714z" fill="#666" stroke="#686565" stroke-linecap="round" stroke-linejoin="round" stroke-width=".125"/>
<path d="m134.36057-.02441 .82776.19771 .22641,1.98714-.82776-.19771-.22641-1.98714z" fill="#666" stroke="#686565" stroke-linecap="round" stroke-linejoin="round" stroke-width=".125"/>
<path d="m135.18833.1733-.27656.45272 .22641,1.98714 .27656-.45273-.22641-1.98714z" fill="#666" stroke="#686565" stroke-linecap="round" stroke-linejoin="round" stroke-width=".125"/>
<path d="m134.91177.62602-.27656.45272 .22641,1.98714 .27656-.45273-.22641-1.98714z" fill="#666" stroke="#686565" stroke-linecap="round" stroke-linejoin="round" stroke-width=".125"/>
<path d="m134.63521,1.07875 .84135.20458 .22641,1.98714-.84135-.20458-.22641-1.98714z" fill="#666" stroke="#686565" stroke-linecap="round" stroke-linejoin="round" stroke-width=".125"/>
<path d="m135.47656,1.28333 .84135.20458 .22641,1.98714-.84135-.20458-.22641-1.98714z" fill="#666" stroke="#686565" stroke-linecap="round" stroke-linejoin="round" stroke-width=".125"/>
<path d="m136.31791,1.48791-.4926.91429 .22641,1.98714 .4926-.91429-.22641-1.98714z" fill="#666" stroke="#686565" stroke-linecap="round" stroke-linejoin="round" stroke-width=".125"/>
<path d="m135.82531,2.4022-.49179.91468 .22641,1.98714 .49179-.91468-.22641-1.98714z" fill="#666" stroke="#686565" stroke-linecap="round" stroke-linejoin="round" stroke-width=".125"/>
<path d="m135.33352,3.31688 .84444.22724 .22641,1.98714-.84444-.22724-.22641-1.98714z" fill="#666" stroke="#686565" stroke-linecap="round" stroke-linejoin="round" stroke-width=".125"/>
<path d="m136.17796,3.54412 .84487.22744 .22641,1.98714-.84487-.22744-.22641-1.98714z" fill="#666" stroke="#686565" stroke-linecap="round" stroke-linejoin="round" stroke-width=".125"/>
<path d="m137.02283,3.77156-.4784.90962 .22641,1.98714 .4784-.90962-.22641-1.98714z" fill="#666" stroke="#686565" stroke-linecap="round" stroke-linejoin="round" stroke-width=".125"/>
<path d="m136.54443,4.68118-.47839.90962 .22641,1.98714 .47839-.90962-.22641-1.98714z" fill="#666" stroke="#686565" stroke-linecap="round" stroke-linejoin="round" stroke-width=".125"/>
<path d="m136.06604,5.5908 .90391.23388 .22641,1.98714-.90391-.23388-.22641-1.98714z" fill="#666" stroke="#686565" stroke-linecap="round" stroke-linejoin="round" stroke-width=".125"/>
<path d="m136.96995,5.82469 .90392.23388 .22641,1.98714-.90392-.23388-.22641-1.98714z" fill="#666" stroke="#686565" stroke-linecap="round" stroke-linejoin="round" stroke-width=".125"/>
<path d="m137.87387,6.05857-.47233.97303 .22641,1.98714 .47233-.97303-.22641-1.98714z" fill="#666" stroke="#686565" stroke-linecap="round" stroke-linejoin="round" stroke-width=".125"/>
<path d="m137.40154,7.0316-.47232.97303 .22641,1.98714 .47232-.97303-.22641-1.98714z" fill="#666" stroke="#686565" stroke-linecap="round" stroke-linejoin="round" stroke-width=".125"/>
<path d="m136.92922,8.00464 .93351.24835 .22641,1.98714-.93351-.24835-.22641-1.98714z" fill="#666" stroke="#686565" stroke-linecap="round" stroke-linejoin="round" stroke-width=".125"/>
<path d="m137.86273,8.25298 .93352.24835 .22641,1.98714-.93352-.24835-.22641-1.98714z" fill="#666" stroke="#686565" stroke-linecap="round" stroke-linejoin="round" stroke-width=".125"/>
<path d="m138.79625,8.50133-.40973.98287 .22641,1.98714 .40973-.98287-.22641-1.98714z" fill="#666" stroke="#686565" stroke-linecap="round" stroke-linejoin="round" stroke-width=".125"/>
<path d="m138.38652,9.4842-.40887.98327 .22641,1.98714 .40887-.98327-.22641-1.98714z" fill="#666" stroke="#686565" stroke-linecap="round" stroke-linejoin="round" stroke-width=".125"/>
<path d="m137.97765,10.46748 7.73287,2.10931 .22641,1.98714-7.73287-2.10931-.22641-1.98714z" fill="#666" stroke="#686565" stroke-linecap="round" stroke-linejoin="round" stroke-width=".125"/>
<path d="m145.71052,12.57679 7.73287,2.10931 .22641,1.98714-7.73287-2.10931-.22641-1.98714z" fill="#666" stroke="#686565" stroke-linecap="round" stroke-linejoin="round" stroke-width=".125"/>
<path d="m153.44339,14.68609 .21112-1.08779 .22641,1.98714-.21112,1.08779-.22641-1.98714z" fill="#666" stroke="#686565" stroke-linecap="round" stroke-linejoin="round" stroke-width=".125"/>
<path d="m153.65451,13.5983 .21028-1.08819 .22641,1.98714-.21028,1.08819-.22641-1.98714z" fill="#666" stroke="#686565" stroke-linecap="round" stroke-linejoin="round" stroke-width=".125"/>
<path d="m153.86479,12.51011 .88534.23553 .22641,1.98714-.88534-.23553-.22641-1.98714z" fill="#666" stroke="#686565" stroke-linecap="round" stroke-linejoin="round" stroke-width=".125"/>
<path d="m154.75013,12.74564 .88536.23554 .22641,1.98714-.88536-.23554-.22641-1.98714z" fill="#666" stroke="#686565" stroke-linecap="round" stroke-linejoin="round" stroke-width=".125"/>
<path d="m155.63549,12.98118 .25195-1.62317 .22641,1.98714-.25195,1.62317-.22641-1.98714z" fill="#666" stroke="#686565" stroke-linecap="round" stroke-linejoin="round" stroke-width=".125"/>
<path d="m155.88744,11.35801 .25076-1.62374 .22641,1.98714-.25076,1.62374-.22641-1.98714z" fill="#666" stroke="#686565" stroke-linecap="round" stroke-linejoin="round" stroke-width=".125"/>
<path d="m156.1382,9.73427 .91386.21708 .22641,1.98714-.91386-.21708-.22641-1.98714z" fill="#666" stroke="#686565" stroke-linecap="round" stroke-linejoin="round" stroke-width=".125"/>
<path d="m157.05206,9.95135 .91342.21687 .22641,1.98714-.91342-.21687-.22641-1.98714z" fill="#666" stroke="#686565" stroke-linecap="round" stroke-linejoin="round" stroke-width=".125"/>
<path d="m157.96548,10.16822 .42251-3.8859 .22641,1.98714-.42251,3.8859-.22641-1.98714z" fill="#666" stroke="#686565" stroke-linecap="round" stroke-linejoin="round" stroke-width=".125"/>
<path d="m158.38799,6.28232 .42251-3.8859 .22641,1.98714-.42251,3.8859-.22641-1.98714z" fill="#666" stroke="#686565" stroke-linecap="round" stroke-linejoin="round" stroke-width=".125"/>
<path d="m158.8105,2.39642-.78159-.17578 .22641,1.98714 .78159.17578-.22641-1.98714z" fill="#666" stroke="#686565" stroke-linecap="round" stroke-linejoin="round" stroke-width=".125"/>
<path d="m158.02891,2.22064-.7816-.17578 .22641,1.98714 .7816.17578-.22641-1.98714z" fill="#666" stroke="#686565" stroke-linecap="round" stroke-linejoin="round" stroke-width=".125"/>
<path d="m157.24731,2.04485 .07577-.5481 .22641,1.98714-.07577.5481-.22641-1.98714z" fill="#666" stroke="#686565" stroke-linecap="round" stroke-linejoin="round" stroke-width=".125"/>
<path d="m157.32308,1.49676 .07578-.5481 .22641,1.98714-.07578.5481-.22641-1.98714z" fill="#666" stroke="#686565" stroke-linecap="round" stroke-linejoin="round" stroke-width=".125"/>
<path d="m157.39886.94866-.76621-.16847 .22641,1.98714 .76621.16847-.22641-1.98714z" fill="#666" stroke="#686565" stroke-linecap="round" stroke-linejoin="round" stroke-width=".125"/>
<path d="m156.63265.78019-.7662-.16847 .22641,1.98714 .7662.16847-.22641-1.98714z" fill="#666" stroke="#686565" stroke-linecap="round" stroke-linejoin="round" stroke-width=".125"/>
<path d="m155.86645.61171-.27348,1.62237 .22641,1.98714 .27348-1.62237-.22641-1.98714z" fill="#666" stroke="#686565" stroke-linecap="round" stroke-linejoin="round" stroke-width=".125"/>
<path d="m155.59297,2.23408-.27348,1.62237 .22641,1.98714 .27348-1.62237-.22641-1.98714z" fill="#666" stroke="#686565" stroke-linecap="round" stroke-linejoin="round" stroke-width=".125"/>
<path d="m155.31949,3.85645-.81238-.1904 .22641,1.98714 .81238.1904-.22641-1.98714z" fill="#666" stroke="#686565" stroke-linecap="round" stroke-linejoin="round" stroke-width=".125"/>
<path d="m154.50711,3.66605-.81236-.1904 .22641,1.98714 .81236.1904-.22641-1.98714z" fill="#666" stroke="#686565" stroke-linecap="round" stroke-linejoin="round" stroke-width=".125"/>
<path d="m153.69475,3.47565 .42086-2.10725 .22641,1.98714-.42086,2.10725-.22641-1.98714z" fill="#666" stroke="#686565" stroke-linecap="round" stroke-linejoin="round" stroke-width=".125"/>
<path d="m154.11561,1.3684 .42085-2.10725 .22641,1.98714-.42085,2.10725-.22641-1.98714z" fill="#666" stroke="#686565" stroke-linecap="round" stroke-linejoin="round" stroke-width=".125"/>
<path d="m154.53646-.73885-1.50318-.32306 .22641,1.98714 1.50318.32306-.22641-1.98714z" fill="#666" stroke="#686565" stroke-linecap="round" stroke-linejoin="round" stroke-width=".125"/>
<path d="m153.03328-1.06191-1.50319-.32306 .22641,1.98714 1.50319.32306-.22641-1.98714z" fill="#666" stroke="#686565" stroke-linecap="round" stroke-linejoin="round" stroke-width=".125"/>
<path d="m151.53009-1.38498-.40509,1.53065 .22641,1.98714 .40509-1.53065-.22641-1.98714z" fill="#666" stroke="#686565" stroke-linecap="round" stroke-linejoin="round" stroke-width=".125"/>
<path d="m151.125.14568-.40509,1.53065 .22641,1.98714 .40509-1.53065-.22641-1.98714z" fill="#666" stroke="#686565" stroke-linecap="round" stroke-linejoin="round" stroke-width=".125"/>
<path d="m150.71991,1.67633-.79698-.18309 .22641,1.98714 .79698.18309-.22641-1.98714z" fill="#666" stroke="#686565" stroke-linecap="round" stroke-linejoin="round" stroke-width=".125"/>
<path d="m149.92293,1.49324-.79697-.18309 .22641,1.98714 .79697.18309-.22641-1.98714z" fill="#666" stroke="#686565" stroke-linecap="round" stroke-linejoin="round" stroke-width=".125"/>
<path d="m149.12596,1.31015 .60318-2.02065 .22641,1.98714-.60318,2.02065-.22641-1.98714z" fill="#666" stroke="#686565" stroke-linecap="round" stroke-linejoin="round" stroke-width=".125"/>
<path d="m149.72914-.7105 .60317-2.02065 .22641,1.98714-.60317,2.02065-.22641-1.98714z" fill="#666" stroke="#686565" stroke-linecap="round" stroke-linejoin="round" stroke-width=".125"/>
<path d="m150.33231-2.73115-1.47241-.30845 .22641,1.98714 1.47241.30845-.22641-1.98714z" fill="#666" stroke="#686565" stroke-linecap="round" stroke-linejoin="round" stroke-width=".125"/>
<path d="m148.8599-3.03959-1.47242-.30845 .22641,1.98714 1.47242.30845-.22641-1.98714z" fill="#666" stroke="#686565" stroke-linecap="round" stroke-linejoin="round" stroke-width=".125"/>
<path d="m147.38748-3.34804-.72473,1.96291 .22641,1.98714 .72473-1.96291-.22641-1.98714z" fill="#666" stroke="#686565" stroke-linecap="round" stroke-linejoin="round" stroke-width=".125"/>
<path d="m146.66275-1.38513-.72472,1.96291 .22641,1.98714 .72472-1.96291-.22641-1.98714z" fill="#666" stroke="#686565" stroke-linecap="round" stroke-linejoin="round" stroke-width=".125"/>
<path d="m145.93803.57779-.79698-.18309 .22641,1.98714 .79698.18309-.22641-1.98714z" fill="#666" stroke="#686565" stroke-linecap="round" stroke-linejoin="round" stroke-width=".125"/>
<path d="m145.14105.3947-.79699-.18309 .22641,1.98714 .79699.18309-.22641-1.98714z" fill="#666" stroke="#686565" stroke-linecap="round" stroke-linejoin="round" stroke-width=".125"/>
<path d="m144.34406.2116 1.78975-4.40669 .22641,1.98714-1.78975,4.40669-.22641-1.98714z" fill="#666" stroke="#686565" stroke-linecap="round" stroke-linejoin="round" stroke-width=".125"/>
<path d="m146.13381-4.19508 1.78974-4.40669 .22641,1.98714-1.78974,4.40668-.22641-1.98714z" fill="#666" stroke="#686565" stroke-linecap="round" stroke-linejoin="round" stroke-width=".125"/>
<path d="m147.92355-8.60177-1.34993-.2405 .22641,1.98714 1.34993.2405-.22641-1.98714z" fill="#666" stroke="#686565" stroke-linecap="round" stroke-linejoin="round" stroke-width=".125"/>
<path d="m146.57362-8.84226-1.34995-.2405 .22641,1.98714 1.34995.2405-.22641-1.98714z" fill="#666" stroke="#686565" stroke-linecap="round" stroke-linejoin="round" stroke-width=".125"/>
<path d="m145.22367-9.08276 .2304-.47465 .22641,1.98714-.2304.47465-.22641-1.98714z" fill="#666" stroke="#686565" stroke-linecap="round" stroke-linejoin="round" stroke-width=".125"/>
<path d="m145.45407-9.55741 .2304-.47465 .22641,1.98714-.2304.47465-.22641-1.98714z" fill="#666" stroke="#686565" stroke-linecap="round" stroke-linejoin="round" stroke-width=".125"/>
<path d="m145.68447-10.03206 1.31841.22552 .22641,1.98714-1.31841-.22552-.22641-1.98714z" fill="#666" stroke="#686565" stroke-linecap="round" stroke-linejoin="round" stroke-width=".125"/>
<path d="m147.00288-9.80655 1.31839.22552 .22641,1.98714-1.31839-.22552-.22641-1.98714z" fill="#666" stroke="#686565" stroke-linecap="round" stroke-linejoin="round" stroke-width=".125"/>
<path d="m148.32127-9.58103-.19814.48786 .22641,1.98714 .19814-.48786-.22641-1.98714z" fill="#666" stroke="#686565" stroke-linecap="round" stroke-linejoin="round" stroke-width=".125"/>
<path d="m148.12313-9.09317-.19814.48786 .22641,1.98714 .19814-.48786-.22641-1.98714z" fill="#666" stroke="#686565" stroke-linecap="round" stroke-linejoin="round" stroke-width=".125"/>
<path d="m147.92499-8.60531 .63652.12847 .22641,1.98714-.63652-.12847-.22641-1.98714z" fill="#666" stroke="#686565" stroke-linecap="round" stroke-linejoin="round" stroke-width=".125"/>
<path d="m148.56151-8.47684 .63695.12868 .22641,1.98714-.63695-.12868-.22641-1.98714z" fill="#666" stroke="#686565" stroke-linecap="round" stroke-linejoin="round" stroke-width=".125"/>
<path d="m149.19846-8.34816-.71282,1.97806 .22641,1.98714 .71282-1.97806-.22641-1.98714z" fill="#666" stroke="#686565" stroke-linecap="round" stroke-linejoin="round" stroke-width=".125"/>
<path d="m148.48564-6.3701-.71121,1.97882 .22641,1.98714 .71121-1.97882-.22641-1.98714z" fill="#666" stroke="#686565" stroke-linecap="round" stroke-linejoin="round" stroke-width=".125"/>
<path d="m147.77443-4.39128 1.43928.29293 .22641,1.98714-1.43928-.29293-.22641-1.98714z" fill="#666" stroke="#686565" stroke-linecap="round" stroke-linejoin="round" stroke-width=".125"/>
<path d="m149.21371-4.09835 1.43928.29293 .22641,1.98714-1.43928-.29293-.22641-1.98714z" fill="#666" stroke="#686565" stroke-linecap="round" stroke-linejoin="round" stroke-width=".125"/>
<path d="m150.65299-3.80542-.1527.51155 .22641,1.98714 .1527-.51155-.22641-1.98714z" fill="#666" stroke="#686565" stroke-linecap="round" stroke-linejoin="round" stroke-width=".125"/>
<path d="m150.50029-3.29386-.15271.51156 .22641,1.98714 .15271-.51156-.22641-1.98714z" fill="#666" stroke="#686565" stroke-linecap="round" stroke-linejoin="round" stroke-width=".125"/>
<path d="m150.34758-2.7823 2.20632.46157 .22641,1.98714-2.20632-.46157-.22641-1.98714z" fill="#666" stroke="#686565" stroke-linecap="round" stroke-linejoin="round" stroke-width=".125"/>
<path d="m152.5539-2.32073 2.20631.46157 .22641,1.98714-2.20631-.46157-.22641-1.98714z" fill="#666" stroke="#686565" stroke-linecap="round" stroke-linejoin="round" stroke-width=".125"/>
<path d="m154.76021-1.85916-.11187.56015 .22641,1.98714 .11187-.56016-.22641-1.98714z" fill="#666" stroke="#686565" stroke-linecap="round" stroke-linejoin="round" stroke-width=".125"/>
<path d="m154.64834-1.29901-.11188.56015 .22641,1.98714 .11188-.56015-.22641-1.98714z" fill="#666" stroke="#686565" stroke-linecap="round" stroke-linejoin="round" stroke-width=".125"/>
<path d="m154.53646-.73885 1.50319.32306 .22641,1.98714-1.50319-.32306-.22641-1.98714z" fill="#666" stroke="#686565" stroke-linecap="round" stroke-linejoin="round" stroke-width=".125"/>
<path d="m156.03965-.41579 1.50318.32306 .22641,1.98714-1.50318-.32306-.22641-1.98714z" fill="#666" stroke="#686565" stroke-linecap="round" stroke-linejoin="round" stroke-width=".125"/>
<path d="m157.54283-.09273-.07172.51878 .22641,1.98714 .07172-.51878-.22641-1.98714z" fill="#666" stroke="#686565" stroke-linecap="round" stroke-linejoin="round" stroke-width=".125"/>
<path d="m157.47111.42605-.07172.51877 .22641,1.98714 .07172-.51877-.22641-1.98714z" fill="#666" stroke="#686565" stroke-linecap="round" stroke-linejoin="round" stroke-width=".125"/>
<path d="m157.39939.94482 .78338.18839 .22641,1.98714-.78338-.18839-.22641-1.98714z" fill="#666" stroke="#686565" stroke-linecap="round" stroke-linejoin="round" stroke-width=".125"/>
<path d="m158.18277,1.13321 .78382.1886 .22641,1.98714-.78382-.1886-.22641-1.98714z" fill="#666" stroke="#686565" stroke-linecap="round" stroke-linejoin="round" stroke-width=".125"/>
<path d="m158.96659,1.32181-.03634.54663 .22641,1.98714 .03634-.54663-.22641-1.98714z" fill="#666" stroke="#686565" stroke-linecap="round" stroke-linejoin="round" stroke-width=".125"/>
<path d="m158.93025,1.86844-.03593.54683 .22641,1.98714 .03593-.54683-.22641-1.98714z" fill="#666" stroke="#686565" stroke-linecap="round" stroke-linejoin="round" stroke-width=".125"/>
<path d="m158.89432,2.41527 .70062.15757 .22641,1.98714-.70062-.15757-.22641-1.98714z" fill="#666" stroke="#686565" stroke-linecap="round" stroke-linejoin="round" stroke-width=".125"/>
<path d="m159.59494,2.57284 .7006.15757 .22641,1.98714-.7006-.15757-.22641-1.98714z" fill="#666" stroke="#686565" stroke-linecap="round" stroke-linejoin="round" stroke-width=".125"/>
<path d="m160.29554,2.73041-.32024,3.93433 .22641,1.98714 .32024-3.93433-.22641-1.98714z" fill="#666" stroke="#686565" stroke-linecap="round" stroke-linejoin="round" stroke-width=".125"/>
<path d="m159.9753,6.66474-.32024,3.93433 .22641,1.98714 .32024-3.93433-.22641-1.98714z" fill="#666" stroke="#686565" stroke-linecap="round" stroke-linejoin="round" stroke-width=".125"/>
<path d="m159.65506,10.59907-.82406-.19382 .22641,1.98714 .82406.19382-.22641-1.98714z" fill="#666" stroke="#686565" stroke-linecap="round" stroke-linejoin="round" stroke-width=".125"/>
<path d="m158.831,10.40524-.82448-.19402 .22641,1.98714 .82448.19401-.22641-1.98714z" fill="#666" stroke="#686565" stroke-linecap="round" stroke-linejoin="round" stroke-width=".125"/>
<path d="m158.00652,10.21123-.20268,1.64657 .22641,1.98714 .20268-1.64657-.22641-1.98714z" fill="#666" stroke="#686565" stroke-linecap="round" stroke-linejoin="round" stroke-width=".125"/>
<path d="m157.80384,11.8578-.2039,1.646 .22641,1.98714 .2039-1.646-.22641-1.98714z" fill="#666" stroke="#686565" stroke-linecap="round" stroke-linejoin="round" stroke-width=".125"/>
<path d="m157.59994,13.5038-.93406-.24849 .22641,1.98714 .93406.24849-.22641-1.98714z" fill="#666" stroke="#686565" stroke-linecap="round" stroke-linejoin="round" stroke-width=".125"/>
<path d="m156.66588,13.2553-.93406-.2485 .22641,1.98714 .93406.2485-.22641-1.98714z" fill="#666" stroke="#686565" stroke-linecap="round" stroke-linejoin="round" stroke-width=".125"/>
<path d="m155.73182,13.00681-.22733,1.64429 .22641,1.98714 .22733-1.64429-.22641-1.98714z" fill="#666" stroke="#686565" stroke-linecap="round" stroke-linejoin="round" stroke-width=".125"/>
<path d="m155.50449,14.6511-.22732,1.64429 .22641,1.98714 .22732-1.64429-.22641-1.98714z" fill="#666" stroke="#686565" stroke-linecap="round" stroke-linejoin="round" stroke-width=".125"/>
<path d="m155.27717,16.29539-9.86517-2.72143 .22641,1.98714 9.86517,2.72143-.22641-1.98714z" fill="#666" stroke="#686565" stroke-linecap="round" stroke-linejoin="round" stroke-width=".125"/>
<path d="m145.412,13.57397-9.86519-2.72143 .22641,1.98714 9.86519,2.72143-.22641-1.98714z" fill="#666" stroke="#686565" stroke-linecap="round" stroke-linejoin="round" stroke-width=".125"/>
<path d="m135.54681,10.85254 .69121-1.42395 .22641,1.98714-.69121,1.42395-.22641-1.98714z" fill="#666" stroke="#686565" stroke-linecap="round" stroke-linejoin="round" stroke-width=".125"/>
<path d="m136.23802,9.42859 .22641,1.98714-.22641-1.98714z" fill="#666" stroke="#686565" stroke-linecap="round" stroke-linejoin="round" stroke-width=".125"/>
</g>
<path d="m134.43403-2.57267 3.4166.79121 .14385.79121 2.014.68332 4.8192-8.66736 .86314-.28771 2.01399.39561 .43157.61139-.86314,4.17184 2.94906,1.007 .39561.79121 3.77623,1.25875 .28772.57543 2.44556,1.04296 .53946.68332 1.11489.97103 .43157.79121-.93507,7.01301-.68332.39561-2.26574,3.02099-2.01399,1.69032-16.32773-4.53148 .10789-2.08592-1.76224-4.99902-.14386-1.04296-.64735-1.87014-1.29471-1.15085 1.18681-2.04996z" fill="#fff" fill-rule="evenodd"/>
<path d="m136.23802,9.42859 .6912-1.42395-.93546-.24887-.93545-.24886 .49158-.93468 .49157-.93468-.90468-.23425-.90468-.23425 .52234-.92007 .52235-.92007-.87391-.21963-.8739-.21963 .55311-.90545 .55312-.90545-.84009-.20427-.84008-.20427 .26066-.44008 .26111-.43987-.79885-.20558-.79842-.20538 .92087-1.31274 .92088-1.31274 2.34479.52735 2.34478.52735-.26117.46003-.26118.46003 .83684.19225 .83683.19224 2.19291-4.18598 2.19291-4.18598 .59334.10591 .59336.10591-2.9821,6.11827-2.9821,6.11827-.77199-.19076-.77197-.19076 .7228-1.37974 .7228-1.37974-.85298-.19992-.85299-.19992 .26117-.46003 .26117-.46003-1.59395-.36618-1.59396-.36618-.58389.89083-.58389.89083 .82775.19771 .82776.19771-.27656.45272-.27656.45272 .84135.20458 .84135.20458-.4926.91429-.49179.91468 .84444.22724 .84487.22744-.4784.90962-.47839.90962 .90391.23388 .90392.23388-.47233.97303-.47232.97303 .93351.24835 .93352.24835-.40973.98287-.40887.98327 7.73287,2.10931 7.73287,2.10931 .21112-1.08779 .21028-1.08819 .88534.23553 .88536.23554 .25195-1.62317 .25076-1.62374 .91386.21708 .91342.21687 .42251-3.8859 .42251-3.8859-.78159-.17578-.7816-.17578 .07577-.5481 .07578-.5481-.76621-.16847-.7662-.16847-.27348,1.62237-.27348,1.62237-.81238-.1904-.81236-.1904 .42086-2.10725 .42085-2.10725-1.50318-.32306-1.50319-.32306-.40509,1.53065-.40509,1.53065-.79698-.18309-.79697-.18309 .60318-2.02065 .60317-2.02065-1.47241-.30845-1.47242-.30845-.72473,1.96291-.72472,1.96291-.79698-.18309-.79699-.18309 1.78975-4.40669 1.78974-4.40669-1.34993-.2405-1.34995-.2405 .2304-.47465 .2304-.47465 1.31841.22552 1.31839.22552-.19814.48786-.19814.48786 .63652.12847 .63695.12868-.71282,1.97806-.71121,1.97882 1.43928.29293 1.43928.29293-.1527.51155-.15271.51156 2.20632.46157 2.20631.46157-.11187.56015-.11188.56015 1.50319.32306 1.50318.32306-.07172.51878-.07172.51877 .78338.18839 .78382.1886-.03634.54663-.03593.54683 .70062.15757 .7006.15757-.32024,3.93433-.32024,3.93433-.82406-.19382-.82448-.19402-.20268,1.64657-.2039,1.646-.93406-.24849-.93406-.2485-.22733,1.64429-.22732,1.64429-9.86517-2.72143-9.86519-2.72143 .69121-1.42395"/>
</g>
</svg>
